<?xml version="1.0" encoding="UTF-8" standalone="yes"?>
<svg xmlns="http://www.w3.org/2000/svg" viewBox="0 0 24 24" width="50" height="50" fill="#000000">
  <path d="M 12 4 C 10.34375 4 9 5.34375 9 7 C 9 7.773438 9.300781 8.46875 9.78125 9 L 8 9 L 8 11 L 9.96875 11 C 9.59375 15 7 15.144531 7 17 L 17 17 C 17 15.238281 14.40625 15.011719 14.03125 11 L 16 11 L 16 9 L 14.21875 9 C 14.699219 8.46875 15 7.773438 15 7 C 15 5.34375 13.65625 4 12 4 Z M 5 18 L 5 20 L 6.40625 20 L 4 24 L 20 24 L 17.59375 20 L 19 20 L 19 18 Z"/>
</svg>