<?xml version="1.0" encoding="UTF-8" standalone="yes"?>
<svg xmlns="http://www.w3.org/2000/svg" viewBox="0 0 24 24" width="50" height="50" fill="#000000">
  <path d="M 12 0 C 11.171875 0 10.5 0.671875 10.5 1.5 C 10.5 2.019531 10.757813 2.480469 11.15625 2.75 L 11.125 2.84375 C 10.402344 3.472656 9.40625 4.417969 8.8125 5.4375 L 7.25 4.375 L 7.25 4.34375 C 7.410156 4.105469 7.5 3.8125 7.5 3.5 C 7.5 2.671875 6.828125 2 6 2 C 5.171875 2 4.5 2.671875 4.5 3.5 C 4.5 4.328125 5.171875 5 6 5 C 6.105469 5 6.214844 4.988281 6.3125 4.96875 L 7 8 L 17 8 L 17.6875 4.96875 C 17.785156 4.988281 17.894531 5 18 5 C 18.828125 5 19.5 4.328125 19.5 3.5 C 19.5 2.671875 18.828125 2 18 2 C 17.171875 2 16.5 2.671875 16.5 3.5 C 16.5 3.8125 16.589844 4.105469 16.75 4.34375 C 16.753906 4.351563 16.746094 4.367188 16.75 4.375 L 15.1875 5.4375 C 14.59375 4.417969 13.597656 3.472656 12.875 2.84375 L 12.84375 2.75 C 13.242188 2.480469 13.5 2.019531 13.5 1.5 C 13.5 0.671875 12.828125 0 12 0 Z M 7 9 L 7 11 L 9.96875 11 C 9.59375 15 7 15.144531 7 17 L 17 17 C 17 15.238281 14.40625 15.011719 14.03125 11 L 17 11 L 17 9 Z M 5 18 L 5 20 L 6.40625 20 L 4 24 L 20 24 L 17.59375 20 L 19 20 L 19 18 Z"/>
</svg>